The Usual Suspects 1995.1080p.BluRay.mkv
****************************************

TiTLE......  The Usual Suspects
YEAR.......  1995
GENRE......  Crime | Mystery | Thriller
iMDB RATE..  User Rating: 8.7/10 (253,856 votes)
iMDB URL...  http://www.imdb.com/title/tt0114814/
Awards 1996: Won 2 Oscars. Another 22 wins & 7 nominations
**********************************************************

Video
*****
Duration                         : 1h 46mn
Bit rate                         : 6 332 Kbps
Width                            : 1 920 pixels
Height                           : 816 pixels
Display aspect ratio             : 2.35:1
Frame rate                       : 23.976 fps
Stream size                      : 4.57 GiB (79%)

Audio
*****
Format                           : DTS
Codec ID                         : A_DTS
Bit rate                         : 1 510 Kbps
Channel(s)                       : 6 channels
Channel positions                : Front: L C R, Surround: L R, LFE
Sampling rate                    : 48.0 KHz
Stream size                      : 1.12 GiB (19%)
Language                         : English

Subtitles: English, French, Portuguese, Swedish 
***********************************************
